<?xml version="1.0" encoding="UTF-8" standalone="no"?>
<svg
   xmlns:dc="http://purl.org/dc/elements/1.1/"
   xmlns:cc="http://creativecommons.org/ns#"
   xmlns:rdf="http://www.w3.org/1999/02/22-rdf-syntax-ns#"
   xmlns:svg="http://www.w3.org/2000/svg"
   xmlns="http://www.w3.org/2000/svg"
   version="1.1"
   id="svg2"
   viewBox="0 0 63.950716 63.950716"
   height="18.048313mm"
   width="18.048313mm">
  <defs
     id="defs4" />
  <metadata
     id="metadata7">
    <rdf:RDF>
      <cc:Work
         rdf:about="">
        <dc:format>image/svg+xml</dc:format>
        <dc:type
           rdf:resource="http://purl.org/dc/dcmitype/StillImage" />
        <dc:title></dc:title>
      </cc:Work>
    </rdf:RDF>
  </metadata>
  <g
     transform="translate(-183.69221,-546.12022)"
     id="layer1">
    <circle
       r="29.975357"
       cy="578.09558"
       cx="215.66757"
       style="opacity:1;fill:#ffffff;fill-opacity:1;stroke:#000000;stroke-width:4;stroke-linecap:butt;stroke-linejoin:miter;stroke-miterlimit:4;stroke-dasharray:none;stroke-dashoffset:0;stroke-opacity:1"
       id="path4142" />
    <path
       id="path4162"
       d="m 215.66797,552.97266 a 25.123301,25.123301 0 0 0 -21.75781,12.56054 25.123301,25.123301 0 0 0 0,25.125 25.123301,25.123301 0 0 0 21.75781,12.56055 l 0,-10.54297 -7.65625,0 0,-2.36328 3.86719,0 0,-24.12109 -7.98829,0 0,4.60937 -2.67578,0 0,-7.28516 14.45313,0 0,-10.54296 z m 0,10.54296 0,14.58008 0,14.58008 7.65625,0 0,-2.36328 -3.88672,0 0,-24.12109 8.04688,0 0,4.60937 2.63671,0 0,-7.28516 -14.45312,0 z"
       style="font-style:normal;font-variant:normal;font-weight:bold;font-stretch:normal;font-size:medium;line-height:125%;font-family:'DejaVu Serif';-inkscape-font-specification:'DejaVu Serif';letter-spacing:0px;word-spacing:0px;fill:#000000;fill-opacity:1;stroke:none;stroke-width:1px;stroke-linecap:butt;stroke-linejoin:miter;stroke-opacity:1" />
  </g>
</svg>
