<?xml version="1.0" encoding="UTF-8" standalone="no"?>
<svg
   xmlns:dc="http://purl.org/dc/elements/1.1/"
   xmlns:cc="http://creativecommons.org/ns#"
   xmlns:rdf="http://www.w3.org/1999/02/22-rdf-syntax-ns#"
   xmlns:svg="http://www.w3.org/2000/svg"
   xmlns="http://www.w3.org/2000/svg"
   version="1.1"
   id="svg2"
   viewBox="0 0 63.950716 63.950716"
   height="18.048313mm"
   width="18.048313mm">
  <defs
     id="defs4" />
  <metadata
     id="metadata7">
    <rdf:RDF>
      <cc:Work
         rdf:about="">
        <dc:format>image/svg+xml</dc:format>
        <dc:type
           rdf:resource="http://purl.org/dc/dcmitype/StillImage" />
        <dc:title></dc:title>
      </cc:Work>
    </rdf:RDF>
  </metadata>
  <g
     transform="translate(-183.69221,-546.12022)"
     id="layer1">
    <rect
       y="548.9021"
       x="186.56613"
       height="58.386951"
       width="58.202866"
       id="rect4354"
       style="opacity:1;fill:#ffffff;fill-opacity:1;stroke:none;stroke-width:4;stroke-linecap:butt;stroke-linejoin:miter;stroke-miterlimit:4;stroke-dasharray:none;stroke-dashoffset:0;stroke-opacity:1" />
    <path
       id="rect4261"
       d="m 215.66756,606.07031 -26.22615,0 c -1.00399,0 -1.75,-0.74601 -1.75,-1.75 l 0,-52.45117 c 0,-1.00399 0.74601,-1.74805 1.75,-1.74805 l 26.22615,0 0,-4 -26.22615,0 c -3.1508,0 -5.75,2.59725 -5.75,5.74805 l 0,52.45117 c 0,3.1508 2.5992,5.75 5.75,5.75 l 26.22615,0 z"
       style="color:#000000;font-style:normal;font-variant:normal;font-weight:normal;font-stretch:normal;font-size:medium;line-height:normal;font-family:sans-serif;text-indent:0;text-align:start;text-decoration:none;text-decoration-line:none;text-decoration-style:solid;text-decoration-color:#000000;letter-spacing:normal;word-spacing:normal;text-transform:none;direction:ltr;block-progression:tb;writing-mode:lr-tb;baseline-shift:baseline;text-anchor:start;white-space:normal;clip-rule:nonzero;display:inline;overflow:visible;visibility:visible;opacity:1;isolation:auto;mix-blend-mode:normal;color-interpolation:sRGB;color-interpolation-filters:linearRGB;solid-color:#000000;solid-opacity:1;fill:#000000;fill-opacity:1;fill-rule:nonzero;stroke:none;stroke-width:4;stroke-linecap:butt;stroke-linejoin:miter;stroke-miterlimit:4;stroke-dasharray:none;stroke-dashoffset:0;stroke-opacity:1;color-rendering:auto;image-rendering:auto;shape-rendering:auto;text-rendering:auto;enable-background:accumulate" />
    <path
       transform="translate(183.69221,546.12022)"
       id="rect4358"
       d="M 31.974609 2.78125 L 31.974609 10.105469 L 53.654297 10.105469 L 53.654297 21.033203 L 49.699219 21.033203 L 49.699219 14.119141 L 37.628906 14.119141 L 37.628906 50.300781 L 43.458984 50.300781 L 43.458984 53.845703 L 31.974609 53.845703 L 31.974609 61.167969 L 61.076172 61.167969 L 61.076172 2.78125 L 31.974609 2.78125 z M 31.974609 53.845703 L 31.974609 10.105469 L 10.294922 10.105469 L 10.294922 21.033203 L 14.308594 21.033203 L 14.308594 14.119141 L 26.291016 14.119141 L 26.291016 50.300781 L 20.490234 50.300781 L 20.490234 53.845703 L 31.974609 53.845703 z "
       style="opacity:1;fill:#000000;fill-opacity:1;stroke:none;stroke-width:4;stroke-linecap:butt;stroke-linejoin:miter;stroke-miterlimit:4;stroke-dasharray:none;stroke-dashoffset:0;stroke-opacity:1" />
    <path
       style="color:#000000;font-style:normal;font-variant:normal;font-weight:normal;font-stretch:normal;font-size:medium;line-height:normal;font-family:sans-serif;text-indent:0;text-align:start;text-decoration:none;text-decoration-line:none;text-decoration-style:solid;text-decoration-color:#000000;letter-spacing:normal;word-spacing:normal;text-transform:none;direction:ltr;block-progression:tb;writing-mode:lr-tb;baseline-shift:baseline;text-anchor:start;white-space:normal;clip-rule:nonzero;display:inline;overflow:visible;visibility:visible;opacity:1;isolation:auto;mix-blend-mode:normal;color-interpolation:sRGB;color-interpolation-filters:linearRGB;solid-color:#000000;solid-opacity:1;fill:#ffffff;fill-opacity:1;fill-rule:nonzero;stroke:none;stroke-width:4;stroke-linecap:butt;stroke-linejoin:miter;stroke-miterlimit:4;stroke-dasharray:none;stroke-dashoffset:0;stroke-opacity:1;color-rendering:auto;image-rendering:auto;shape-rendering:auto;text-rendering:auto;enable-background:accumulate"
       d="m 215.66756,606.07031 26.22615,0 c 1.00399,0 1.75,-0.74601 1.75,-1.75 l 0,-52.45117 c 0,-1.00399 -0.74601,-1.74805 -1.75,-1.74805 l -26.22615,0 0,-4 26.22615,0 c 3.1508,0 5.75,2.59725 5.75,5.74805 l 0,52.45117 c 0,3.1508 -2.5992,5.75 -5.75,5.75 l -26.22615,0 z"
       id="path4273" />
  </g>
</svg>
